<?xml version="1.0" encoding="utf-8"?>
<!-- Generator: Adobe Illustrator 19.1.0, SVG Export Plug-In . SVG Version: 6.00 Build 0)  -->
<svg version="1.1" id="Layer_1" xmlns="http://www.w3.org/2000/svg" xmlns:xlink="http://www.w3.org/1999/xlink" x="0px" y="0px"
	 viewBox="0 0 80.9 17.5" style="enable-background:new 0 0 80.9 17.5;" xml:space="preserve" fill="#0f7aff">
<g>
	<path d="M15.2,0.2l0.6,1.4l-9,11.6l6.9,0l-0.6,4H0.6L0,15.6L8.9,4.2H2.1l0.6-4H15.2z"/>
	<path d="M19.6,17.2h-4.3l2.4-17h4.3L19.6,17.2z"/>
	<path d="M32.5,5.3c-0.3-1-1.2-1.5-2.1-1.5c-1.2,0-2.5,0.7-2.6,1.9l-0.8,5.8c-0.2,1.3,0.9,1.9,2.2,1.9c1.2,0,2.6-0.6,2.8-1.9
		l0.1-0.7h-2.7l0.5-3.5h6.8L36,11.6c-0.6,3.9-4.1,5.9-7.5,5.9c-3.4,0-6.4-2-5.9-5.9l0.8-5.8C24,1.8,27.6,0,31,0
		c2.2,0,4.6,0.9,5.4,3.6L32.5,5.3z"/>
	<path d="M51.5,0.2L52,1.7l-9,11.6l6.9,0l-0.6,4H36.8l-0.6-1.6l8.9-11.4h-6.8l0.6-4H51.5z"/>
	<path d="M65.9,17.2h-4.6l-0.6-3.4h-4.5l-1.5,3.4H50l8.3-17h3.9L65.9,17.2z M60.2,10l-0.5-5h-0.2l-1.9,5H60.2z"/>
	<path d="M76.8,5.3c-0.3-1-1.2-1.5-2.1-1.5c-1.2,0-2.5,0.7-2.6,1.9l-0.8,5.8c-0.2,1.3,0.9,1.9,2.2,1.9c1.2,0,2.6-0.6,2.8-1.9
		l0.1-0.7h-2.7L74,7.4h6.8l-0.6,4.2c-0.6,3.9-4.1,5.9-7.5,5.9c-3.4,0-6.4-2-5.9-5.9l0.8-5.8c0.6-4,4.2-5.8,7.5-5.8
		c2.2,0,4.6,0.9,5.4,3.6L76.8,5.3z"/>
</g>
</svg>
