<?xml version="1.0" encoding="utf-8"?>
<!-- Generator: Adobe Illustrator 19.1.0, SVG Export Plug-In . SVG Version: 6.00 Build 0)  -->
<svg version="1.1" id="Layer_1" xmlns="http://www.w3.org/2000/svg" xmlns:xlink="http://www.w3.org/1999/xlink" x="0px" y="0px"
	 viewBox="-337.2 670.1 125.1 125.1" style="enable-background:new -337.2 670.1 125.1 125.1;" xml:space="preserve">
<style type="text/css">
	.st0{fill:#FFFFFF;}
</style>
<g id="Layer_1_1_">
</g>
<g id="Layer_3">
</g>
<g id="Layer_4">
</g>
<g id="Layer_2">
	<g>
		
			<rect x="-283.5" y="724.2" transform="matrix(0.9482 -0.3176 0.3176 0.9482 -246.9349 -49.31)" class="st0" width="17.6" height="17"/>
		<g>
			
				<rect x="-283.5" y="724.2" transform="matrix(0.9482 -0.3176 0.3176 0.9482 -246.9349 -49.31)" class="st0" width="17.6" height="17"/>
			<path class="st0" d="M-217.4,715.4c-12.9-43-31.5-53-74.5-40.1c-43,12.9-53,31.5-40.1,74.5s31.5,53,74.5,40.1
				C-214.5,777-204.5,758.4-217.4,715.4z M-239.1,743.3l-8.1,2.7l2.8,8.4c1.1,3.4-0.7,7.1-4.1,8.2c-0.7,0.2-1.5,0.4-2.2,0.3
				c-2.6-0.1-5.1-1.8-6-4.4l-2.8-8.4l-16.7,5.6l2.8,8.4c1.1,3.4-0.7,7.1-4.1,8.2c-0.7,0.2-1.5,0.4-2.2,0.3c-2.6-0.1-5.1-1.8-6-4.4
				l-2.8-8.4l-8.1,2.7c-0.7,0.2-1.5,0.4-2.2,0.3c-2.6-0.1-5.1-1.8-6-4.4c-1.1-3.4,0.7-7.1,4.1-8.2l8.1-2.7l-5.4-16.1l-8.1,2.7
				c-0.7,0.2-1.5,0.4-2.2,0.3c-2.6-0.1-5.1-1.8-6-4.4c-1.1-3.4,0.7-7.1,4.1-8.2l8.1-2.7l-2.8-8.4c-1.1-3.4,0.7-7.1,4.1-8.2
				c3.4-1.1,7.1,0.7,8.2,4.1l2.8,8.4l16.7-5.6l-2.8-8.4c-1.1-3.4,0.7-7.1,4.1-8.2c3.4-1.1,7.1,0.7,8.2,4.1l2.8,8.4l8.1-2.7
				c3.4-1.1,7.1,0.7,8.2,4.1c1.1,3.4-0.7,7.1-4.1,8.2l-8.1,2.7l5.4,16.1l8.1-2.7c3.4-1.1,7.1,0.7,8.2,4.1
				C-233.9,738.5-235.7,742.2-239.1,743.3z"/>
		</g>
	</g>
</g>
</svg>
