<?xml version="1.0" encoding="utf-8"?>
<!-- Generator: Adobe Illustrator 22.1.0, SVG Export Plug-In . SVG Version: 6.00 Build 0)  -->
<svg version="1.1" id="Layer_1" xmlns="http://www.w3.org/2000/svg" xmlns:xlink="http://www.w3.org/1999/xlink" x="0px" y="0px"
	 viewBox="0 0 16 16" style="enable-background:new 0 0 16 16;" xml:space="preserve">
<style type="text/css">
	.st0{fill:#F7931A;}
	.st1{fill:#fff;}
	.st2{fill:#4395F0;}
</style>
<g>
	<circle class="st0" cx="8" cy="8" r="8"/>
	<path fill="#fff" class="st1" d="M11.6,7c0.2-1-0.6-1.6-1.7-2l0.4-1.4L9.4,3.4L9.1,4.8C8.9,4.7,8.6,4.7,8.4,4.6l0.3-1.4L7.8,3L7.4,4.4
		C7.2,4.4,7,4.3,6.8,4.3l0,0L5.6,4L5.4,4.9C5.4,4.9,6,5,6,5.1c0.4,0.1,0.4,0.3,0.4,0.5L6,7.2h0.1H6L5.4,9.5c0,0.1-0.2,0.3-0.4,0.2
		L4.4,9.5l-0.4,1l1.1,0.3c0.2,0.1,0.4,0.1,0.6,0.2l-0.4,1.4l0.9,0.2l0.4-1.4c0.2,0.1,0.5,0.1,0.7,0.2l-0.4,1.4L7.8,13l0.4-1.4
		c1.5,0.3,2.6,0.2,3-1.2c0.4-1.1,0-1.7-0.8-2.1C11.1,8.1,11.5,7.8,11.6,7z M9.6,9.8c-0.3,1.1-2.1,0.5-2.7,0.3l0.5-1.9
		C8,8.4,9.9,8.7,9.6,9.8z M9.9,7C9.7,8,8.2,7.5,7.7,7.4l0.4-1.7C8.6,5.7,10.1,6,9.9,7z"/>
</g>
<g>
	<circle class="st2" cx="12.6" cy="3.4" r="3.4"/>
	<path fill="#fff" class="st1" d="M13.3,1.2l-1.8,2.3c0,0-0.2,0.2,0.1,0.3c0.4,0,1,0,1,0l-0.7,1.8l1.8-2.3c0,0,0.2-0.2-0.1-0.3c-0.4,0-1,0-1,0
		L13.3,1.2z"/>
</g>
</svg>
