<?xml version="1.0" encoding="utf-8"?>
<!-- Generator: Adobe Illustrator 19.1.0, SVG Export Plug-In . SVG Version: 6.00 Build 0)  -->
<svg version="1.1" id="Layer_1" xmlns="http://www.w3.org/2000/svg" xmlns:xlink="http://www.w3.org/1999/xlink" x="0px" y="0px"
	 viewBox="-17 173 448 448" style="enable-background:new -17 173 448 448;" xml:space="preserve">
<path d="M139.8,396.9c0,36.9,30.2,67.2,67.2,67.2s67.2-30.2,67.2-67.2c0-36.9-30.2-67.2-67.2-67.2S139.8,360,139.8,396.9
	L139.8,396.9z"/>
<path d="M427.8,358.8C427.7,358.8,427.7,358.8,427.8,358.8c-1.7-9.8-4.1-19.8-7-28.8h-0.1c3,9,5.4,19,7.1,29h0
	c-1.7-10-4.1-20-7.1-29H265.2c19,17,31.4,40.2,31.4,67.1c0,16.8-4.5,31.3-12.3,44.7L182,619.5c0,0,0,0.3,0,0.3l0,0.3h0l0-0.3
	c8.2,0.9,16.5,1.3,25,1.3c6.8,0,13.6-0.4,20.3-1c10-0.9,20-2.5,29.8-4.7C356.7,592.5,431,503.4,431,396.9
	C431,383.9,429.9,371.2,427.8,358.8z"/>
<path d="M207,486.5c-33.6,0-61.6-17.9-77.3-44.8L27,264l-0.1-0.2c-10.4,14-19.1,29.1-25.9,45.1c-11.6,27-18,56.8-18,88
	c0,62.7,25.8,119.4,67.3,160c29.3,28.7,66.5,49.4,108.1,58.6l0-0.1l77.7-134.6C227.2,484.3,217.1,486.5,207,486.5z"/>
<path d="M42.3,245.6l77.3,133.3c7.8-40.3,43.7-71.8,87.4-71.8h205.2c-6.9-15-15.6-30.3-25.8-43.9c0,0,0.1,0.1,0.1,0.1
	c10.1,13.6,18.8,28.9,25.7,43.9h0.2c-6.9-15-15.5-30.4-25.7-44c-0.1-0.1-0.2-0.2-0.3-0.3C345.5,208.3,280.4,173,207,173
	c-26.4,0-51.7,4.6-75.2,12.9c-34.6,12.3-65.3,32.9-89.7,59.4L42.3,245.6C42.3,245.6,42.3,245.6,42.3,245.6z"/>
</svg>
