<?xml version="1.0" encoding="utf-8"?>
<!-- Generator: Adobe Illustrator 19.1.0, SVG Export Plug-In . SVG Version: 6.00 Build 0)  -->
<svg version="1.1" id="Layer_1" xmlns="http://www.w3.org/2000/svg" xmlns:xlink="http://www.w3.org/1999/xlink" x="0px" y="0px"
	 viewBox="-289 381 16 16" style="enable-background:new -289 381 16 16;" xml:space="preserve">
<style type="text/css">
	.st0{fill:#8DC351;}
	.st1{fill:#FFFFFF;}
</style>
<g>
	<circle class="st0" cx="-281" cy="389" r="8"/>
	<path class="st1" d="M-278.4,386.3c-0.4-1-1.4-1.1-2.5-0.9l-0.4-1.4l-0.9,0.2l0.4,1.4c-0.2,0.1-0.5,0.1-0.7,0.2l-0.4-1.4l-0.9,0.2
		l0.4,1.4c-0.2,0.1-0.4,0.1-0.5,0.2l0,0l-1.2,0.3l0.3,0.9c0,0,0.6-0.2,0.6-0.2c0.3-0.1,0.5,0.1,0.6,0.2l0.5,1.6c0,0,0.1,0,0.1,0
		l-0.1,0l0.6,2.2c0,0.1,0,0.3-0.2,0.4c0,0-0.6,0.2-0.6,0.2l0.1,1.1l1.1-0.3c0.2-0.1,0.4-0.1,0.6-0.2l0.4,1.4l0.9-0.2l-0.4-1.4
		c0.2-0.1,0.5-0.1,0.7-0.2l0.4,1.4l0.9-0.2l-0.4-1.4c1.4-0.5,2.3-1.1,2.1-2.5c-0.2-1.1-0.9-1.5-1.7-1.4
		C-278.3,387.5-278.1,387-278.4,386.3L-278.4,386.3z M-278.7,389.7c0.3,1.1-1.5,1.5-2.1,1.6l-0.5-1.9
		C-280.8,389.2-279,388.5-278.7,389.7L-278.7,389.7z M-279.9,387.1c0.3,1-1.3,1.3-1.8,1.4l-0.5-1.7
		C-281.6,386.7-280.2,386.1-279.9,387.1L-279.9,387.1z"/>
</g>
</svg>
