<?xml version="1.0" encoding="utf-8"?>
<!-- Generator: Adobe Illustrator 19.1.0, SVG Export Plug-In . SVG Version: 6.00 Build 0)  -->
<svg version="1.1" id="Layer_1" xmlns="http://www.w3.org/2000/svg" xmlns:xlink="http://www.w3.org/1999/xlink" x="0px" y="0px"
	 viewBox="-289 381 16 16" style="enable-background:new -289 381 16 16;" xml:space="preserve">
<style type="text/css">
	.st0{fill:#F7931A;}
	.st1{fill:#FFFFFF;}
</style>
<g>
	<circle class="st0" cx="-281" cy="389" r="8"/>
	<path class="st1" d="M-277.4,388c0.2-1-0.6-1.6-1.7-2l0.4-1.4l-0.9-0.2l-0.3,1.4c-0.2-0.1-0.5-0.1-0.7-0.2l0.3-1.4l-0.9-0.2
		l-0.4,1.4c-0.2,0-0.4-0.1-0.6-0.1l0,0l-1.2-0.3l-0.2,0.9c0,0,0.6,0.1,0.6,0.2c0.4,0.1,0.4,0.3,0.4,0.5l-0.4,1.6c0,0,0.1,0,0.1,0
		l-0.1,0l-0.6,2.3c0,0.1-0.2,0.3-0.4,0.2c0,0-0.6-0.2-0.6-0.2l-0.4,1l1.1,0.3c0.2,0.1,0.4,0.1,0.6,0.2l-0.4,1.4l0.9,0.2l0.4-1.4
		c0.2,0.1,0.5,0.1,0.7,0.2l-0.4,1.4l0.9,0.2l0.4-1.4c1.5,0.3,2.6,0.2,3-1.2c0.4-1.1,0-1.7-0.8-2.1
		C-277.9,389.1-277.5,388.8-277.4,388z M-279.4,390.8c-0.3,1.1-2.1,0.5-2.7,0.3l0.5-1.9C-281,389.4-279.1,389.7-279.4,390.8z
		 M-279.1,388c-0.2,1-1.7,0.5-2.2,0.4l0.4-1.7C-280.4,386.7-278.9,387-279.1,388z"/>
</g>
</svg>
