<?xml version="1.0" encoding="utf-8"?>
<!-- Generator: Adobe Illustrator 19.1.0, SVG Export Plug-In . SVG Version: 6.00 Build 0)  -->
<svg version="1.1" id="Layer_1" xmlns="http://www.w3.org/2000/svg" xmlns:xlink="http://www.w3.org/1999/xlink" x="0px" y="0px"
	 viewBox="31 205 352 384" style="enable-background:new 31 205 352 384;" xml:space="preserve">
<path d="M95,409.4V499c0,6.9,4.5,14,11.4,14H135v52c0,13.3,10.7,24,24,24s24-10.7,24-24v-52h49v52c0,7.5,3.4,14.2,8.8,18.6
	c3.9,3.4,9.1,5.4,14.7,5.4h0.5c13.3,0,24-10.7,24-24v-52h27.6c7,0,11.4-7.1,11.4-13.9V333H95V409.4z M359,317c-13.3,0-24,10.7-24,24
	v96c0,13.3,10.7,24,24,24s24-10.7,24-24v-96C383,327.7,372.3,317,359,317z M55,317c-13.3,0-24,10.7-24,24v96c0,13.3,10.7,24,24,24
	s24-10.7,24-24v-96C79,327.7,68.3,317,55,317z"/>
<g>
	<path d="M262.2,230.1l18.5-21.9c0.4-0.5-0.2-1.6-1.3-2.5c-1.1-0.8-2.4-1-2.7-0.4l-19.2,22.8c-13.6-5.4-30.2-8.8-50.6-8.8
		c-20.5-0.1-37.2,3.2-50.8,8.5l-19-22.4c-0.4-0.5-1.6-0.4-2.7,0.4s-1.7,1.8-1.3,2.5l18.3,21.6C103.2,250.8,96,302.1,95,317.1h223.6
		C317.7,302,310.6,251.4,262.2,230.1L262.2,230.1z M157.8,279.9c-7.4,0-13.5-6-13.5-13.3c0-7.3,6-13.3,13.5-13.3
		c7.4,0,13.5,6,13.5,13.3C171.3,273.9,165.3,279.9,157.8,279.9z M256.2,279.9c-7.4,0-13.5-6-13.5-13.3c0-7.3,6-13.3,13.5-13.3
		c7.4,0,13.5,6,13.5,13.3C269.7,273.9,263.6,279.9,256.2,279.9z"/>
</g>
</svg>
