<?xml version="1.0" encoding="utf-8"?>
<!-- Generator: Adobe Illustrator 19.1.0, SVG Export Plug-In . SVG Version: 6.00 Build 0)  -->
<svg version="1.1" id="Layer_1" xmlns="http://www.w3.org/2000/svg" xmlns:xlink="http://www.w3.org/1999/xlink" x="0px" y="0px"
	 viewBox="47 205 320 384.1" style="enable-background:new 47 205 320 384.1;" xml:space="preserve">
<path d="M284.6,294.9c-33.6,0-47.8,16.5-71.2,16.5c-24,0-42.3-16.4-71.4-16.4c-28.5,0-58.9,17.9-78.2,48.4
	c-27.1,43-22.5,124,21.4,193c15.7,24.7,36.7,52.4,64.2,52.7h0.5c23.9,0,31-16.1,63.9-16.3h0.5c32.4,0,38.9,16.2,62.7,16.2h0.5
	c27.5-0.3,49.6-31,65.3-55.6c11.3-17.7,15.5-26.6,24.2-46.6c-63.5-24.8-73.7-117.4-10.9-152.9C336.9,309.2,310,294.9,284.6,294.9
	L284.6,294.9z"/>
<path d="M277.2,205c-20,1.4-43.3,14.5-57,31.6c-12.4,15.5-22.6,38.5-18.6,60.8h1.6c21.3,0,43.1-13.2,55.8-30.1
	C271.3,251.2,280.6,228.4,277.2,205z"/>
</svg>
