<?xml version="1.0" encoding="utf-8"?>
<!-- Generator: Adobe Illustrator 19.1.0, SVG Export Plug-In . SVG Version: 6.00 Build 0)  -->
<svg version="1.1" id="Capa_1" xmlns="http://www.w3.org/2000/svg" xmlns:xlink="http://www.w3.org/1999/xlink" x="0px" y="0px"
	 viewBox="-51.5 150.6 480.4 493.4" style="enable-background:new -51.5 150.6 480.4 493.4;" xml:space="preserve">
<g id="ubuntu">
	<g>
		<g>
			<path d="M110.8,391.8c0-38.1,17.9-72.1,45.7-93.9L114,229.8c-35.6,25.6-62.5,62.7-75.1,105.8c19.8,12.8,32.9,35,32.9,60.4
				c0,24.4-12.1,46-30.8,58.9c13.6,40.9,40.1,75.8,74.7,100.1l39.6-70.4C128.2,462.8,110.8,429.3,110.8,391.8z"/>
		</g>
	</g>
	<g>
		<path d="M51.7,395.9c0,28.5-23.1,51.6-51.6,51.6c-28.5,0-51.6-23.1-51.6-51.6c0-28.5,23.1-51.6,51.6-51.6
			C28.6,344.4,51.7,367.5,51.7,395.9z"/>
	</g>
	<g>
		<g>
			<path d="M341.5,520.7c12,0,23.3,2.9,33.2,8.1c30.9-32.6,50.9-75.6,54.2-123.2l-80.1-1.6c-6.2,60.1-57,106.9-118.7,106.9
				c-17.1,0-33.4-3.6-48.1-10.1l-39.8,69.7c26.6,13.1,56.4,20.4,87.9,20.4c13.6,0,27-1.4,39.9-4C272.7,550,303.7,520.7,341.5,520.7z
				"/>
		</g>
	</g>
	<g>
		<path d="M393.1,592.4c0,28.5-23.1,51.6-51.6,51.6c-28.5,0-51.6-23.1-51.6-51.6c0-28.5,23.1-51.6,51.6-51.6
			C370,540.8,393.1,563.9,393.1,592.4z"/>
	</g>
	<g>
		<g>
			<path d="M380.2,260.7c-11.7,8.3-26,13.2-41.4,13.2c-39.6,0-71.7-32.1-71.7-71.7c0-2.1,0.1-4.1,0.3-6.2c-12-2.3-24.5-3.5-37.2-3.5
				c-31.9,0-62,7.5-88.7,20.8L181,283c15-6.7,31.6-10.5,49.1-10.5c61.2,0,111.6,46.1,118.5,105.4l80.1-2.4
				C425.2,331.7,407.5,291.9,380.2,260.7z"/>
		</g>
	</g>
	<g>
		<path d="M390.4,202.2c0,28.5-23,51.6-51.6,51.6c-28.5,0-51.6-23.1-51.6-51.6c0-28.5,23.1-51.6,51.6-51.6
			C367.3,150.6,390.4,173.7,390.4,202.2z"/>
	</g>
</g>
</svg>
